<?xml version="1.0" encoding="utf-8"?>
<!-- Generator: Adobe Illustrator 24.2.3, SVG Export Plug-In . SVG Version: 6.00 Build 0)  -->
<svg version="1.1" id="Layer_1" xmlns="http://www.w3.org/2000/svg" xmlns:xlink="http://www.w3.org/1999/xlink" x="0px" y="0px"
	 viewBox="0 0 110 32" style="enable-background:new 0 0 110 32;" xml:space="preserve">
<style type="text/css">
	.st0{fill:#040470;}
	.st1{fill:#FFFFFF;}
	.st2{fill:#FEFEFE;}
	.st3{fill:#FF6600;}
</style>
<g>
	<path class="st0" d="M46.7,9.4l-2.3,1.3c-0.2-0.5-0.5-0.8-0.8-1.2c-0.6-0.4-1.2-0.6-2.1-0.6c-0.8,0-1.5,0.2-2,0.6
		c-0.4,0.4-0.7,0.9-0.7,1.6c0,0.9,0.6,1.8,2,2.3l1.9,0.7c2.9,1.1,4.4,3,4.4,5.5c0,1.8-0.5,3.2-1.7,4.4c-1.1,1.1-2.6,1.7-4.4,1.7
		s-3.3-0.6-4.4-1.9c-0.9-1-1.5-2.3-1.6-3.6l2.8-0.6c0,0.9,0.3,1.7,0.8,2.4c0.6,0.7,1.5,1.1,2.4,1.1c0.8,0,1.6-0.3,2.2-0.8
		C43.8,21.7,44,21,44,20c0-0.8-0.2-1.6-0.7-2s-1.1-0.8-2-1.2L39.7,16c-2.5-1-3.8-2.6-3.8-4.8c0-1.3,0.5-2.5,1.5-3.4s2.3-1.5,3.9-1.5
		c1.6,0,2.8,0.4,3.7,1.2C45.9,8.1,46.3,8.7,46.7,9.4z"/>
	<path class="st0" d="M59,14.8v-1.3h2.7v11.7H59V24c-0.9,1-2.1,1.6-3.5,1.6c-1.8,0-3.1-0.6-4.2-1.9s-1.6-2.7-1.6-4.5
		c0-1.9,0.5-3.3,1.7-4.5c1.1-1.1,2.5-1.7,4-1.7C56.9,13.2,58,13.8,59,14.8z M55.7,15.7c-0.9,0-1.8,0.4-2.4,1.1
		c-0.6,0.7-0.9,1.7-0.9,2.7s0.3,2,0.9,2.7c0.6,0.7,1.3,1.1,2.4,1.1c0.9,0,1.8-0.3,2.4-0.9c0.6-0.6,0.9-1.6,0.9-2.7
		c0-1.2-0.3-2.2-0.9-2.8C57.5,16,56.7,15.7,55.7,15.7z"/>
	<path class="st0" d="M71.9,15.5l-2.3,1.2c-0.3-0.7-0.7-1-1.3-1c-0.2,0-0.4,0.1-0.6,0.2c-0.1,0.1-0.2,0.3-0.2,0.5c0,0.1,0,0.1,0,0.2
		s0,0.1,0.1,0.2c0,0.1,0.1,0.1,0.1,0.2c0,0,0.1,0.1,0.2,0.1c0.1,0.1,0.1,0.1,0.2,0.1c0,0,0.1,0.1,0.2,0.1s0.2,0.1,0.2,0.1
		c0.1,0,0.1,0.1,0.3,0.1c0.1,0.1,0.2,0.1,0.3,0.1c1,0.5,1.8,0.9,2.3,1.2c0.9,0.7,1.5,1.6,1.5,2.6c0,1.1-0.4,2.1-1.2,2.8
		c-0.8,0.7-1.9,1.1-3.1,1.1c-0.2,0-0.4,0-0.7-0.1c-0.2,0-0.6-0.1-1-0.3c-0.4-0.2-0.9-0.4-1.3-0.9c-0.4-0.4-0.7-0.9-1-1.7l2.3-1
		c0.1,0.4,0.4,0.8,0.7,1c0.3,0.3,0.7,0.4,1.2,0.4c0.4,0,0.7-0.1,1-0.3c0.2-0.2,0.4-0.5,0.4-0.9c0-0.3-0.1-0.5-0.2-0.7
		s-0.3-0.4-0.4-0.4s-0.3-0.2-0.6-0.3c-1.5-0.7-2.3-1-2.4-1.1c-0.9-0.6-1.3-1.5-1.3-2.6c0-1,0.3-2,1-2.6s1.6-0.9,2.6-0.9
		C70.2,13.2,71.3,14,71.9,15.5z"/>
	<path class="st0" d="M75.7,6.6h4.2c1.8,0,3.1,0.3,4,1c0.7,0.5,1.3,1.1,1.8,2c0.4,0.8,0.6,1.7,0.6,2.6c0,1.7-0.6,3-1.9,4
		c-1.1,0.9-2.7,1.5-4.6,1.5h-1.2v7.6h-2.8L75.7,6.6L75.7,6.6z M78.6,9.2V15h1.2c1.1,0,2.1-0.3,2.7-0.8s0.9-1.2,0.9-2.2
		c0-0.3,0-0.6-0.1-0.9s-0.2-0.6-0.5-0.9c-0.2-0.3-0.6-0.6-1.1-0.8S80.5,9,79.7,9h-1.1V9.2z"/>
	<path class="st0" d="M88.6,25.3V13.5h2.7v1c0.7-0.9,1.7-1.3,2.8-1.3c0.7,0,1.5,0.2,2.2,0.7l-1.2,2.5c-0.5-0.4-1-0.5-1.6-0.5
		c-0.7,0-1.3,0.3-1.8,0.9c-0.2,0.4-0.4,1.2-0.4,2.4v6.1H88.6z"/>
	<path class="st0" d="M99.1,14.9c1.2-1.1,2.7-1.8,4.5-1.8s3.3,0.6,4.5,1.8c1.2,1.2,1.8,2.7,1.8,4.5s-0.6,3.3-1.8,4.5
		c-1.2,1.1-2.7,1.8-4.5,1.8s-3.3-0.6-4.5-1.8c-1.2-1.1-1.8-2.7-1.8-4.5C97.2,17.6,97.9,16.1,99.1,14.9z M101,22.1
		c0.6,0.7,1.5,1,2.6,1s1.9-0.3,2.6-1c0.6-0.7,0.9-1.6,0.9-2.7c0-1.2-0.3-2.2-1-2.8c-0.7-0.6-1.6-0.9-2.5-0.9s-1.8,0.3-2.5,0.9
		c-0.7,0.6-1,1.6-1,2.8C100,20.5,100.4,21.5,101,22.1z"/>
</g>
<path class="st1" d="M27.5,9.5c-1-0.1-1.6-0.6-1.6-1.5s0.5-1.5,1.5-1.5S29,7.1,29,8.1C28.9,8.9,28.2,9.4,27.5,9.5z"/>
<path class="st1" d="M27.7,10.5c0.6,0,0.9,0.2,0.9,0.7s-0.2,0.8-0.7,0.9c-0.6,0.1-0.9-0.2-0.9-0.8C26.9,10.9,27.3,10.6,27.7,10.5z"
	/>
<path class="st2" d="M-620.3,306.3"/>
<g>
	<path class="st3" d="M31,9.2c0-2.8,0-5.7,0-8.5c-0.5,0.5-1.4,1-2.6,1.3c-2.3,0.5-3.8-0.6-6.1-1.3C17.8-0.6,13.5,0.6,11.9,1
		c-1.3,0.4-3.8,1.1-6.3,3.2c-0.9,0.7-3.4,3-4.8,6.8c-0.6,1.7-0.7,4.1-0.8,8.7C-0.1,25,0.1,30.3,0.1,30.3c0.2-1.4,0.6-3.1,1.2-5.2
		C1.5,24.4,2.1,22.5,3,20c1.5-3.9,2.5-5.2,3.2-5.9c0.6-0.7,1.2-1.1,1.5-1.4c0.7-0.6,2.6-1.9,5.6-2.9c2.4-0.7,4.1-0.7,7.9-0.6
		C23.3,9.3,26.7,9.3,31,9.2z"/>
	<path class="st3" d="M22.2,19.6c-0.8-0.1-1.8-0.2-3.1-0.1c-0.7,0-2.9,0.1-5.9,0.9c-1.8,0.5-4,1.1-6.3,2.5c-3.6,2.2-5.6,5.3-6.8,7.5
		C0.2,29,0.5,27,1,24.6c0.5-2,0.7-3,1.2-4.1c2-4.4,6.8-6.3,8.5-7c2.7-1.1,5-1.3,7.2-1.5c2.3-0.2,4.2-0.2,5.6-0.1
		c2.5,0,5-0.1,7.5-0.1c0.1,1.1,0.2,2.8,0,4.6c-0.2,2-0.5,5-2.4,8c-2.1,3.4-5,5-6.1,5.6c-3,1.6-5.7,1.6-11.1,1.7
		c-2.9,0.1-5.4-0.1-7.1-0.3c1.8,0,7.5-0.3,12.5-4.6C20,24.3,21.5,21.3,22.2,19.6z"/>
</g>
</svg>
